<?xml version="1.0" encoding="utf-8"?>
<!-- Generator: Adobe Illustrator 25.2.1, SVG Export Plug-In . SVG Version: 6.00 Build 0)  -->
<svg version="1.1" xmlns="http://www.w3.org/2000/svg" xmlns:xlink="http://www.w3.org/1999/xlink" x="0px" y="0px"
	 viewBox="0 0 953 358" style="enable-background:new 0 0 953 358;" xml:space="preserve">
<style type="text/css">
	.st0{fill:#005EA5;}
	.st1{fill:#72BF44;}
</style>
<g id="Layer_2">
</g>
<g id="Layer_1">
	<g>
		<g>
			<path class="st0" d="M440.1,118.7c9.8,0,14.2-1,16.5-2.4c2-1.3,3.4-4.1,3.4-7.1c0-12.2-7.8-22-22.3-22c-22.6,0-33.1,22-33.1,29.1
				c0,1.3,0.7,2.4,4.7,2.4H440.1z M409,132.2c-6.4,0-7.1,0.3-7.1,4.4c0,30.4,21,54.7,51,54.7c13.5,0,24.7-4.4,32.4-16.9
				c3.4-1,7.1,2.4,7.4,5.4c-11.5,27-36.5,37.2-57.1,37.2c-39.2,0-65.2-29.1-65.2-67.6c0-38.2,26-75,71.3-75
				c25,0,50.7,16.2,50.7,45.6c0,3-0.3,5-1.7,7.8c-2,3-9.8,4.4-23.3,4.4H409z"/>
			<path class="st0" d="M574.9,182.2c-0.3,8.1-4.1,16.2-16.2,16.2c-12.9,0-18.9-10.8-18.9-19.6c0-14.5,8.8-19.3,18.2-22.6
				c6.1-2.4,12.2-4,14.9-4c1.7,0,2.7,2,2.7,5.7L574.9,182.2z M631.5,199.2c-0.5-0.4-1-0.9-1.9-0.8c-0.9,0-3,0.8-4.7,0.8
				c-12.2,0-17.2-10.1-16.2-29.7l2.4-52.7c1.3-29.7-15.3-42.2-41.9-42.2c-17.3,0-41.6,11.5-52,21.3C506,106.2,504,113.3,504,117.4
				c0,3,2,5.4,6.4,5.4c7.4,0,16.9-3,21.6-6.1c3.7-2.4,5.7-5.7,6.4-12.2c1.4-9.8,8.5-14.9,17.9-14.9c16.5,0,21.3,14.9,20.6,32.1
				l-0.3,8.8c0,3.4-1,6.4-7.8,8.8c-12.5,4.7-25.3,9.5-37.2,13.5c-23.3,8.1-28,19.3-28,31.4c0,16.9,11.5,32.8,34.5,32.8
				c12.2,0,22.3-4.7,28.7-8.8c5-3,7.4-4.7,9.1-4.7c1.7,0,3,1.7,5.4,4.1c6.4,7.1,15.9,9.4,24.3,9.4c7.2,0,20.1-2.2,25.1-7.3
				C634.4,206,633.7,200.9,631.5,199.2"/>
			<path class="st0" d="M641.7,206.2c-3.4-6.4-5.4-23.7-4.7-38.2c2-2.7,7.1-3,9.5-0.7c6.1,18.9,18.6,36.8,36.5,36.8
				c10.5,0,18.9-7.1,18.9-18.9c0-12.5-11.1-20.6-23-26.4c-17.6-8.5-35.8-20.9-35.8-42.6c-0.3-26.3,22.3-41.9,50.3-41.9
				c13.8,0,26.7,4.1,31.4,6.8c3.4,7.1,5.1,17.6,5.1,32.8c-1,2.7-6.8,3.7-9.1,1.7c-5.1-15.5-15.9-28.4-29-28.4
				c-10.8,0-18.9,7.8-18.9,17.6s9.8,16.9,22.6,23c18.2,8.8,37.5,20.3,37.5,47c0,29.4-26,42.2-52.7,42.2
				C666.4,217,652.5,214.3,641.7,206.2"/>
			<path class="st0" d="M896.3,78.2c-9.1,0.7-18.2,1-27,1c-7.4,0-19.9-0.3-32.1-1c-2.7,1.7-3,7.1-0.7,9.8l11.5,2.4
				c5.1,1,6.4,2.7,6.4,5.8c0,1.3-4.1,14.5-12.1,32.8l-10.2,22.6c-4.4,9.8-9.5,20.6-10.8,21c-1-0.3-5-8.4-11.4-25.7L795,107.9
				c-1.2-3-2.1-5.5-2.7-7.6c-0.4-0.7-0.7-1.5-1-2.2C786,84.4,776,79.6,769.6,79.2c-5.3-0.3-22.6-0.3-29.3-0.7s-8.6,9.2-0.1,11
				c12.1,2.7,14.5,8,22.5,28.5l27.4,71c5,12.8,5.7,19.9,5.7,25c0,14.2-9.4,32.1-16.5,42.2c-3.4,4.7-9.5,6.4-14.2,6.8l-7.4,0.3
				c-9.5,0.3-17.3,4-17.3,15.2c0,9.8,5.8,17.9,18.5,17.9c11.2,0,19.9-5.4,25.7-18.2c14.1-31.1,44.2-91.2,55.7-114.2l17.2-34.5
				c10.5-21,16.9-30.4,20.6-34.1c4.7-4.7,15.2-6.4,19.3-7.5C899.7,85.6,899.7,79.2,896.3,78.2"/>
		</g>
		<g>
			<path class="st1" d="M278.6,194.5c-25.8,0-46.8-23.2-46.8-51.9s20.9-51.9,46.8-51.9c25.8,0,46.8,23.2,46.8,51.9
				S304.4,194.5,278.6,194.5 M278.6,69.6c-38.7,0-70,32.7-70,73c0,40.3,31.3,73,70,73c38.7,0,70-32.7,70-73
				C348.6,102.3,317.3,69.6,278.6,69.6"/>
			<path class="st1" d="M124,194.5c-25.9,0-46.8-23.2-46.8-51.9S98.2,90.7,124,90.7c25.8,0,46.8,23.2,46.8,51.9
				S149.8,194.5,124,194.5 M124,69.6c-38.7,0-70,32.7-70,73c0,40.3,31.3,73,70,73c18,0,34.4-7.2,46.8-18.8v8.3
				c0,28.7-21,51.9-46.8,51.9c-16.1,0-30.3-9-38.7-22.7H56.8c7,28.4,32.7,45.9,65.6,45.9c42.8,0,71.7-30.3,71.7-74.9v-62.7
				C194,102.3,162.7,69.6,124,69.6"/>
		</g>
	</g>
</g>
</svg>
